<?xml version="1.0" encoding="UTF-8"?>
<svg xmlns="http://www.w3.org/2000/svg" viewBox="0 0 256 256" width="256" height="256">
  <rect width="256" height="256" fill="#f2f2f2"/>
  <ellipse cx="128" cy="215" rx="64" ry="14" fill="#c9ced6"/>

  <ellipse cx="128" cy="136" rx="48" ry="64" fill="#e58a43"/>
  <ellipse cx="128" cy="150" rx="26" ry="36" fill="#f4dfb3"/>

  <path d="M86 134 C46 118, 26 84, 44 58 C58 70, 80 86, 96 112" fill="#2e98c6" stroke="#6f4f3c" stroke-width="4"/>
  <path d="M170 134 C210 118, 230 84, 212 58 C198 70, 176 86, 160 112" fill="#2e98c6" stroke="#6f4f3c" stroke-width="4"/>

  <ellipse cx="96" cy="82" rx="16" ry="22" fill="#e58a43"/>
  <ellipse cx="160" cy="82" rx="16" ry="22" fill="#e58a43"/>

  <circle cx="115" cy="74" r="4" fill="#2f2f2f"/>
  <circle cx="141" cy="74" r="4" fill="#2f2f2f"/>

  <path d="M102 92 Q128 106 154 92" fill="none" stroke="#8e4b28" stroke-width="4" stroke-linecap="round"/>

  <path d="M74 182 C44 200, 32 228, 56 234 C70 214, 86 198, 102 188" fill="#e58a43" stroke="#6f4f3c" stroke-width="4"/>
  <path d="M182 182 C212 200, 224 228, 200 234 C186 214, 170 198, 154 188" fill="#e58a43" stroke="#6f4f3c" stroke-width="4"/>

  <path d="M164 172 C198 168, 228 174, 242 196 C224 204, 206 200, 188 186" fill="#e58a43" stroke="#6f4f3c" stroke-width="4"/>
  <path d="M234 184 C246 188, 250 198, 238 208 C226 204, 224 192, 234 184" fill="#f39b34"/>
</svg>
